<svg xmlns="http://www.w3.org/2000/svg" width="64" height="64" viewBox="96 96 832 832">
  <defs>
    <linearGradient id="bg-tomelet" x1="0" y1="0" x2="0" y2="1"><stop offset="0" stop-color="#6F8D80"/><stop offset="1" stop-color="#587366"/></linearGradient>
    <clipPath id="clip-tomelet"><rect x="100" y="100" width="824" height="824" rx="185"/></clipPath>
    <filter id="drop-tomelet" x="-10%" y="-10%" width="120%" height="130%"><feDropShadow dx="0" dy="12" stdDeviation="16" flood-color="#000" flood-opacity=".22"/></filter>
  </defs>
  <rect x="100" y="100" width="824" height="824" rx="185" fill="url(#bg-tomelet)"/>
  <g clip-path="url(#clip-tomelet)">
<ellipse cx="512" cy="862" rx="240" ry="22" fill="#000" opacity=".10"/><g transform="translate(212.0 272) scale(12.5)" stroke-linecap="round" stroke-linejoin="round">
    
    <g fill="none" stroke="#3B4441" stroke-width="1.8"><path d="M20 35.5 L19 45"/><path d="M28 35.5 L29 45"/></g>
    <path d="M10 23C10 11 16 5 25 5c8 0 13 6 13 16 0 11-6 16-15 16-8 0-13-5-13-14Z" fill="#E6E3D9" stroke="#3B4441" stroke-width="1.7"/>
    <path d="M15 13c5-4 13-4 18 0v12c-5 4-13 4-18 0Z" fill="#F6F7F2" stroke="#3B4441" stroke-width="1.4"/>
    <circle cx="21" cy="18" r="1.4" fill="#3B4441"/><circle cx="28" cy="18" r="1.4" fill="#3B4441"/>
    <path d="M22 22c2 2 4 2 6 0" fill="none" stroke="#3B4441" stroke-width="1.2" stroke-linecap="round"/>
    <g fill="none" stroke="#3B4441" stroke-width="1.8"><path d="M11 27 Q7.5 29.5 7.6 33.6"/><path d="M37 27 Q40.5 29.5 40.4 33.6"/></g>
    
  </g><g stroke="#3B4441" stroke-linejoin="round" transform="translate(512 725) scale(1.17) translate(-512 -720)">
      <path d="M512 688 Q424 656 330 676 L338 790 Q428 770 512 800 Q596 770 686 790 L694 676 Q600 656 512 688 Z" fill="#A65A43" stroke-width="18"/>
      <path d="M512 676 Q430 642 348 660 L354 766 Q434 748 512 782 Z" fill="#F4EFE3" stroke-width="16"/>
      <path d="M512 676 Q594 642 676 660 L670 766 Q590 748 512 782 Z" fill="#F4EFE3" stroke-width="16"/>
      <path d="M512 676 L512 782" stroke-width="12"/>
      <g fill="none" stroke="#C7BFAE" stroke-width="9" stroke-linecap="round">
        <path d="M384 690 Q438 680 482 698"/><path d="M384 718 Q438 708 482 726"/>
        <path d="M640 690 Q586 680 542 698"/><path d="M640 718 Q586 708 542 726"/>
      </g>
      <path d="M586 790 L586 846 L602 832 L618 846 L618 784" fill="#D9B45E" stroke-width="10"/>
    </g>
  </g>
</svg>
